<svg xmlns="http://www.w3.org/2000/svg" xmlns:xlink="http://www.w3.org/1999/xlink" width="500" zoomAndPan="magnify" viewBox="0 0 375 374.999991" height="500" preserveAspectRatio="xMidYMid meet" version="1.0"><defs><g/></defs><path fill="#ffffff" d="M 189.6875 142.800781 C 173.761719 148.597656 159.066406 152.882812 148.417969 155.058594 C 138.625 157.050781 132.265625 157.265625 131.523438 155.222656 C 130.804688 153.25 135.4375 149.53125 143.640625 145.003906 C 144.457031 144.550781 144.917969 143.644531 144.792969 142.71875 C 144.789062 142.703125 144.789062 142.6875 144.785156 142.671875 C 144.578125 141.136719 142.933594 140.246094 141.539062 140.929688 C 120.386719 151.289062 107.28125 160.75 109 165.472656 C 110.761719 170.308594 127.648438 168.957031 151.417969 162.929688 C 152.277344 162.710938 153.195312 163.011719 153.746094 163.707031 C 164.964844 177.855469 184.386719 183.933594 202.285156 177.417969 C 224.910156 169.183594 230.199219 152.691406 230.722656 140.488281 C 231.023438 133.453125 228.71875 128.59375 189.6875 142.800781 Z M 189.6875 142.800781 " fill-opacity="1" fill-rule="nonzero"/><path fill="#ffffff" d="M 266.070312 108.304688 C 264.269531 103.367188 246.730469 104.878906 222.203125 111.21875 C 211.136719 96.25 191.160156 89.667969 172.78125 96.355469 C 153.808594 103.261719 147.214844 116.5 145.171875 127.320312 C 143.753906 134.851562 144.933594 141.59375 184.0625 127.351562 C 199.738281 121.644531 214.222656 117.40625 224.824219 115.203125 C 234.898438 113.105469 241.46875 112.847656 242.226562 114.929688 C 242.890625 116.753906 238.976562 120.070312 231.886719 124.148438 C 230.316406 125.054688 229.523438 126.867188 229.875 128.644531 C 229.878906 128.671875 229.886719 128.703125 229.890625 128.730469 C 230.421875 131.464844 233.441406 132.90625 235.929688 131.660156 C 255.667969 121.769531 267.71875 112.84375 266.070312 108.304688 Z M 266.070312 108.304688 " fill-opacity="1" fill-rule="nonzero"/><g fill="#ffffff" fill-opacity="1"><g transform="translate(132.08023, 221.973384)"><g><path d="M 7.421875 -15.953125 L 7.421875 0 L 2.59375 0 L 2.59375 -24.84375 L 6.4375 -24.84375 L 19.28125 -8.46875 L 19.28125 -24.8125 L 24.109375 -24.8125 L 24.109375 0 L 20.09375 0 Z M 7.421875 -15.953125 "/></g></g></g><g fill="#ffffff" fill-opacity="1"><g transform="translate(162.279152, 221.973384)"><g><path d="M 13.1875 0.171875 C 11.375 0.171875 9.722656 -0.175781 8.234375 -0.875 C 6.753906 -1.570312 5.484375 -2.519531 4.421875 -3.71875 C 3.359375 -4.925781 2.535156 -6.28125 1.953125 -7.78125 C 1.367188 -9.289062 1.078125 -10.835938 1.078125 -12.421875 C 1.078125 -14.078125 1.382812 -15.65625 2 -17.15625 C 2.625 -18.664062 3.476562 -20.007812 4.5625 -21.1875 C 5.644531 -22.363281 6.925781 -23.296875 8.40625 -23.984375 C 9.894531 -24.679688 11.523438 -25.03125 13.296875 -25.03125 C 15.097656 -25.03125 16.738281 -24.664062 18.21875 -23.9375 C 19.695312 -23.21875 20.960938 -22.25 22.015625 -21.03125 C 23.066406 -19.820312 23.882812 -18.46875 24.46875 -16.96875 C 25.050781 -15.476562 25.34375 -13.941406 25.34375 -12.359375 C 25.34375 -10.722656 25.035156 -9.148438 24.421875 -7.640625 C 23.816406 -6.140625 22.972656 -4.800781 21.890625 -3.625 C 20.804688 -2.445312 19.519531 -1.519531 18.03125 -0.84375 C 16.550781 -0.164062 14.9375 0.171875 13.1875 0.171875 Z M 5.984375 -12.421875 C 5.984375 -11.347656 6.144531 -10.3125 6.46875 -9.3125 C 6.800781 -8.3125 7.273438 -7.414062 7.890625 -6.625 C 8.503906 -5.84375 9.257812 -5.222656 10.15625 -4.765625 C 11.0625 -4.316406 12.085938 -4.09375 13.234375 -4.09375 C 14.398438 -4.09375 15.4375 -4.332031 16.34375 -4.8125 C 17.25 -5.289062 18.003906 -5.929688 18.609375 -6.734375 C 19.222656 -7.535156 19.6875 -8.429688 20 -9.421875 C 20.3125 -10.421875 20.46875 -11.421875 20.46875 -12.421875 C 20.46875 -13.492188 20.296875 -14.523438 19.953125 -15.515625 C 19.617188 -16.515625 19.144531 -17.40625 18.53125 -18.1875 C 17.914062 -18.96875 17.15625 -19.582031 16.25 -20.03125 C 15.351562 -20.488281 14.347656 -20.71875 13.234375 -20.71875 C 12.035156 -20.71875 10.988281 -20.476562 10.09375 -20 C 9.195312 -19.519531 8.445312 -18.882812 7.84375 -18.09375 C 7.238281 -17.300781 6.773438 -16.414062 6.453125 -15.4375 C 6.140625 -14.457031 5.984375 -13.453125 5.984375 -12.421875 Z M 5.984375 -12.421875 "/></g></g></g><g fill="#ffffff" fill-opacity="1"><g transform="translate(192.233125, 221.973384)"><g><path d="M 5.140625 -24.84375 L 11.859375 -5.734375 L 18.515625 -24.84375 L 23.59375 -24.84375 L 14.171875 0 L 9.515625 0 L 0.0625 -24.84375 Z M 5.140625 -24.84375 "/></g></g></g><g fill="#ffffff" fill-opacity="1"><g transform="translate(219.387738, 221.973384)"><g><path d="M 9.34375 -24.84375 L 14.25 -24.84375 L 23.375 0 L 18.40625 0 L 16.09375 -6.1875 L 7.421875 -6.1875 L 5.140625 0 L 0.171875 0 Z M 15.21875 -9.59375 L 11.796875 -19.84375 L 8.21875 -9.59375 Z M 15.21875 -9.59375 "/></g></g></g><g fill="#ffffff" fill-opacity="1"><g transform="translate(137.388622, 246.053451)"><g><path d="M 0.890625 0 L 0.890625 -8.515625 L 4.5 -8.515625 C 4.894531 -8.515625 5.253906 -8.4375 5.578125 -8.28125 C 5.910156 -8.125 6.195312 -7.90625 6.4375 -7.625 C 6.675781 -7.351562 6.863281 -7.050781 7 -6.71875 C 7.144531 -6.382812 7.21875 -6.039062 7.21875 -5.6875 C 7.21875 -5.207031 7.101562 -4.75 6.875 -4.3125 C 6.65625 -3.882812 6.347656 -3.535156 5.953125 -3.265625 C 5.554688 -2.992188 5.09375 -2.859375 4.5625 -2.859375 L 2.546875 -2.859375 L 2.546875 0 Z M 2.546875 -4.3125 L 4.46875 -4.3125 C 4.664062 -4.3125 4.84375 -4.363281 5 -4.46875 C 5.164062 -4.582031 5.296875 -4.742188 5.390625 -4.953125 C 5.484375 -5.171875 5.53125 -5.414062 5.53125 -5.6875 C 5.53125 -5.976562 5.472656 -6.226562 5.359375 -6.4375 C 5.253906 -6.644531 5.113281 -6.800781 4.9375 -6.90625 C 4.769531 -7.007812 4.585938 -7.0625 4.390625 -7.0625 L 2.546875 -7.0625 Z M 2.546875 -4.3125 "/></g></g></g><g fill="#ffffff" fill-opacity="1"><g transform="translate(146.364644, 246.053451)"><g><path d="M 0.890625 0 L 0.890625 -8.515625 L 2.546875 -8.515625 L 2.546875 -1.453125 L 6.890625 -1.453125 L 6.890625 0 Z M 0.890625 0 "/></g></g></g><g fill="#ffffff" fill-opacity="1"><g transform="translate(154.872671, 246.053451)"><g><path d="M 3.203125 -8.515625 L 4.890625 -8.515625 L 8.015625 0 L 6.3125 0 L 5.515625 -2.125 L 2.546875 -2.125 L 1.765625 0 L 0.0625 0 Z M 5.21875 -3.28125 L 4.046875 -6.796875 L 2.8125 -3.28125 Z M 5.21875 -3.28125 "/></g></g></g><g fill="#ffffff" fill-opacity="1"><g transform="translate(164.436702, 246.053451)"><g><path d="M 2.546875 -5.46875 L 2.546875 0 L 0.890625 0 L 0.890625 -8.515625 L 2.203125 -8.515625 L 6.609375 -2.90625 L 6.609375 -8.515625 L 8.265625 -8.515625 L 8.265625 0 L 6.890625 0 Z M 2.546875 -5.46875 "/></g></g></g><g fill="#ffffff" fill-opacity="1"><g transform="translate(175.092728, 246.053451)"><g><path d="M 6.796875 -1.453125 L 6.796875 0 L 0.890625 0 L 0.890625 -8.515625 L 6.703125 -8.515625 L 6.703125 -7.0625 L 2.546875 -7.0625 L 2.546875 -5.015625 L 6.125 -5.015625 L 6.125 -3.671875 L 2.546875 -3.671875 L 2.546875 -1.453125 Z M 6.796875 -1.453125 "/></g></g></g><g fill="#ffffff" fill-opacity="1"><g transform="translate(183.804745, 246.053451)"><g><path d="M 7.265625 -7.0625 L 4.53125 -7.0625 L 4.53125 0 L 2.890625 0 L 2.890625 -7.0625 L 0.171875 -7.0625 L 0.171875 -8.515625 L 7.265625 -8.515625 Z M 7.265625 -7.0625 "/></g></g></g><g fill="#ffffff" fill-opacity="1"><g transform="translate(192.732773, 246.053451)"><g><path d="M 3.203125 -8.515625 L 4.890625 -8.515625 L 8.015625 0 L 6.3125 0 L 5.515625 -2.125 L 2.546875 -2.125 L 1.765625 0 L 0.0625 0 Z M 5.21875 -3.28125 L 4.046875 -6.796875 L 2.8125 -3.28125 Z M 5.21875 -3.28125 "/></g></g></g><g fill="#ffffff" fill-opacity="1"><g transform="translate(202.296805, 246.053451)"><g><path d="M 0.890625 0 L 0.890625 -8.515625 L 4.65625 -8.515625 C 5.050781 -8.515625 5.410156 -8.4375 5.734375 -8.28125 C 6.066406 -8.125 6.351562 -7.90625 6.59375 -7.625 C 6.84375 -7.351562 7.035156 -7.050781 7.171875 -6.71875 C 7.304688 -6.382812 7.375 -6.039062 7.375 -5.6875 C 7.375 -5.320312 7.3125 -4.972656 7.1875 -4.640625 C 7.0625 -4.316406 6.878906 -4.03125 6.640625 -3.78125 C 6.410156 -3.53125 6.140625 -3.335938 5.828125 -3.203125 L 7.78125 0 L 5.953125 0 L 4.203125 -2.859375 L 2.546875 -2.859375 L 2.546875 0 Z M 2.546875 -4.3125 L 4.625 -4.3125 C 4.832031 -4.3125 5.015625 -4.375 5.171875 -4.5 C 5.328125 -4.625 5.453125 -4.785156 5.546875 -4.984375 C 5.648438 -5.191406 5.703125 -5.425781 5.703125 -5.6875 C 5.703125 -5.957031 5.644531 -6.191406 5.53125 -6.390625 C 5.414062 -6.597656 5.269531 -6.757812 5.09375 -6.875 C 4.925781 -7 4.742188 -7.0625 4.546875 -7.0625 L 2.546875 -7.0625 Z M 2.546875 -4.3125 "/></g></g></g><g fill="#ffffff" fill-opacity="1"><g transform="translate(211.776827, 246.053451)"><g><path d="M 0.890625 0 L 0.890625 -8.515625 L 2.546875 -8.515625 L 2.546875 0 Z M 0.890625 0 "/></g></g></g><g fill="#ffffff" fill-opacity="1"><g transform="translate(216.708841, 246.053451)"><g><path d="M 4.5 0.0625 C 3.820312 0.0625 3.242188 -0.0507812 2.765625 -0.28125 C 2.285156 -0.507812 1.898438 -0.820312 1.609375 -1.21875 C 1.316406 -1.625 1.101562 -2.078125 0.96875 -2.578125 C 0.832031 -3.085938 0.765625 -3.617188 0.765625 -4.171875 L 0.765625 -8.515625 L 2.421875 -8.515625 L 2.421875 -4.171875 C 2.421875 -3.816406 2.453125 -3.472656 2.515625 -3.140625 C 2.585938 -2.816406 2.703125 -2.519531 2.859375 -2.25 C 3.023438 -1.988281 3.238281 -1.78125 3.5 -1.625 C 3.769531 -1.476562 4.097656 -1.40625 4.484375 -1.40625 C 4.890625 -1.40625 5.222656 -1.484375 5.484375 -1.640625 C 5.753906 -1.796875 5.96875 -2.003906 6.125 -2.265625 C 6.28125 -2.523438 6.394531 -2.820312 6.46875 -3.15625 C 6.539062 -3.488281 6.578125 -3.828125 6.578125 -4.171875 L 6.578125 -8.515625 L 8.21875 -8.515625 L 8.21875 -4.171875 C 8.21875 -3.585938 8.144531 -3.039062 8 -2.53125 C 7.863281 -2.019531 7.644531 -1.566406 7.34375 -1.171875 C 7.050781 -0.785156 6.664062 -0.484375 6.1875 -0.265625 C 5.71875 -0.046875 5.15625 0.0625 4.5 0.0625 Z M 4.5 0.0625 "/></g></g></g><g fill="#ffffff" fill-opacity="1"><g transform="translate(227.208875, 246.053451)"><g><path d="M 7.84375 0 L 7.84375 -5.59375 L 5.65625 -1.421875 L 4.734375 -1.421875 L 2.546875 -5.59375 L 2.546875 0 L 0.890625 0 L 0.890625 -8.515625 L 2.65625 -8.515625 L 5.1875 -3.671875 L 7.734375 -8.515625 L 9.484375 -8.515625 L 9.484375 0 Z M 7.84375 0 "/></g></g></g></svg>