<svg xmlns="http://www.w3.org/2000/svg" xmlns:xlink="http://www.w3.org/1999/xlink" width="500" zoomAndPan="magnify" viewBox="0 0 375 374.999991" height="500" preserveAspectRatio="xMidYMid meet" version="1.0"><defs><g/></defs><path fill="#ffffff" d="M 192.53125 147.757812 C 155.882812 161.097656 122.058594 170.964844 97.5625 175.964844 C 75.023438 180.554688 60.386719 181.050781 58.671875 176.347656 C 57.023438 171.8125 67.683594 163.25 86.558594 152.828125 C 88.4375 151.792969 89.503906 149.703125 89.210938 147.578125 C 89.207031 147.539062 89.199219 147.503906 89.195312 147.46875 C 88.714844 143.929688 84.933594 141.882812 81.726562 143.453125 C 33.046875 167.296875 2.882812 189.070312 6.839844 199.9375 C 10.890625 211.066406 49.753906 207.957031 104.457031 194.085938 C 106.441406 193.582031 108.546875 194.269531 109.820312 195.875 C 135.640625 228.433594 180.332031 242.425781 221.53125 227.429688 C 273.59375 208.480469 285.765625 170.519531 286.972656 142.4375 C 287.667969 126.25 282.363281 115.0625 192.53125 147.757812 Z M 192.53125 147.757812 " fill-opacity="1" fill-rule="nonzero"/><path fill="#ffffff" d="M 368.320312 68.371094 C 364.183594 57.007812 323.816406 60.484375 267.363281 75.078125 C 241.898438 40.632812 195.921875 25.476562 153.628906 40.871094 C 109.964844 56.761719 94.785156 87.234375 90.085938 112.136719 C 86.820312 129.464844 89.535156 144.980469 179.589844 112.203125 C 215.667969 99.074219 249 89.316406 273.402344 84.246094 C 296.585938 79.421875 311.707031 78.832031 313.449219 83.617188 C 314.976562 87.8125 305.964844 95.449219 289.65625 104.835938 C 286.039062 106.917969 284.21875 111.089844 285.019531 115.183594 C 285.035156 115.25 285.046875 115.3125 285.058594 115.378906 C 286.28125 121.667969 293.230469 124.992188 298.957031 122.121094 C 344.378906 99.355469 372.121094 78.8125 368.320312 68.371094 Z M 368.320312 68.371094 " fill-opacity="1" fill-rule="nonzero"/><g fill="#ffffff" fill-opacity="1"><g transform="translate(59.956491, 329.969259)"><g><path d="M 17.078125 -36.71875 L 17.078125 0 L 5.953125 0 L 5.953125 -57.171875 L 14.8125 -57.171875 L 44.375 -19.484375 L 44.375 -57.09375 L 55.484375 -57.09375 L 55.484375 0 L 46.21875 0 Z M 17.078125 -36.71875 "/></g></g></g><g fill="#ffffff" fill-opacity="1"><g transform="translate(129.456539, 329.969259)"><g><path d="M 30.359375 0.40625 C 26.171875 0.40625 22.367188 -0.394531 18.953125 -2 C 15.546875 -3.613281 12.617188 -5.800781 10.171875 -8.5625 C 7.734375 -11.332031 5.84375 -14.445312 4.5 -17.90625 C 3.164062 -21.375 2.5 -24.9375 2.5 -28.59375 C 2.5 -32.40625 3.207031 -36.039062 4.625 -39.5 C 6.050781 -42.957031 8.007812 -46.039062 10.5 -48.75 C 13 -51.46875 15.953125 -53.617188 19.359375 -55.203125 C 22.773438 -56.785156 26.523438 -57.578125 30.609375 -57.578125 C 34.734375 -57.578125 38.5 -56.742188 41.90625 -55.078125 C 45.320312 -53.421875 48.238281 -51.195312 50.65625 -48.40625 C 53.070312 -45.613281 54.953125 -42.5 56.296875 -39.0625 C 57.640625 -35.625 58.3125 -32.078125 58.3125 -28.421875 C 58.3125 -24.671875 57.609375 -21.0625 56.203125 -17.59375 C 54.804688 -14.132812 52.859375 -11.046875 50.359375 -8.328125 C 47.867188 -5.617188 44.921875 -3.484375 41.515625 -1.921875 C 38.109375 -0.367188 34.390625 0.40625 30.359375 0.40625 Z M 13.765625 -28.59375 C 13.765625 -26.125 14.140625 -23.734375 14.890625 -21.421875 C 15.648438 -19.109375 16.738281 -17.050781 18.15625 -15.25 C 19.582031 -13.457031 21.328125 -12.035156 23.390625 -10.984375 C 25.460938 -9.941406 27.8125 -9.421875 30.4375 -9.421875 C 33.125 -9.421875 35.515625 -9.96875 37.609375 -11.0625 C 39.703125 -12.164062 41.445312 -13.644531 42.84375 -15.5 C 44.238281 -17.351562 45.296875 -19.421875 46.015625 -21.703125 C 46.742188 -23.984375 47.109375 -26.28125 47.109375 -28.59375 C 47.109375 -31.0625 46.71875 -33.4375 45.9375 -35.71875 C 45.164062 -38 44.066406 -40.035156 42.640625 -41.828125 C 41.210938 -43.628906 39.46875 -45.050781 37.40625 -46.09375 C 35.34375 -47.144531 33.019531 -47.671875 30.4375 -47.671875 C 27.695312 -47.671875 25.296875 -47.117188 23.234375 -46.015625 C 21.171875 -44.921875 19.4375 -43.457031 18.03125 -41.625 C 16.632812 -39.800781 15.570312 -37.757812 14.84375 -35.5 C 14.125 -33.25 13.765625 -30.945312 13.765625 -28.59375 Z M 13.765625 -28.59375 "/></g></g></g><g fill="#ffffff" fill-opacity="1"><g transform="translate(198.392858, 329.969259)"><g><path d="M 11.84375 -57.171875 L 27.296875 -13.203125 L 42.59375 -57.171875 L 54.28125 -57.171875 L 32.609375 0 L 21.90625 0 L 0.15625 -57.171875 Z M 11.84375 -57.171875 "/></g></g></g><g fill="#ffffff" fill-opacity="1"><g transform="translate(260.88671, 329.969259)"><g><path d="M 21.5 -57.171875 L 32.78125 -57.171875 L 53.796875 0 L 42.359375 0 L 37.046875 -14.25 L 17.078125 -14.25 L 11.84375 0 L 0.40625 0 Z M 35.03125 -22.0625 L 27.140625 -45.65625 L 18.921875 -22.0625 Z M 35.03125 -22.0625 "/></g></g></g></svg>