<svg xmlns="http://www.w3.org/2000/svg" xmlns:xlink="http://www.w3.org/1999/xlink" width="500" zoomAndPan="magnify" viewBox="0 0 375 374.999991" height="500" preserveAspectRatio="xMidYMid meet" version="1.0"><defs><g/></defs><path fill="#ffffff" d="M 192.488281 125.328125 C 156.148438 138.554688 122.609375 148.339844 98.316406 153.296875 C 75.964844 157.847656 61.453125 158.339844 59.753906 153.675781 C 58.117188 149.175781 68.6875 140.6875 87.40625 130.355469 C 89.269531 129.324219 90.324219 127.253906 90.035156 125.144531 C 90.03125 125.109375 90.027344 125.074219 90.019531 125.039062 C 89.542969 121.53125 85.792969 119.5 82.617188 121.058594 C 34.34375 144.703125 4.433594 166.289062 8.355469 177.070312 C 12.375 188.105469 50.910156 185.019531 105.152344 171.265625 C 107.121094 170.765625 109.210938 171.449219 110.472656 173.039062 C 136.078125 205.324219 180.390625 219.199219 221.242188 204.328125 C 272.871094 185.539062 284.941406 147.898438 286.136719 120.050781 C 286.824219 104 281.566406 92.90625 192.488281 125.328125 Z M 192.488281 125.328125 " fill-opacity="1" fill-rule="nonzero"/><path fill="#ffffff" d="M 366.800781 46.605469 C 362.699219 35.335938 322.671875 38.785156 266.695312 53.257812 C 241.445312 19.097656 195.851562 4.070312 153.910156 19.335938 C 110.613281 35.09375 95.5625 65.308594 90.90625 90.003906 C 87.664062 107.1875 90.355469 122.574219 179.65625 90.070312 C 215.429688 77.050781 248.480469 67.375 272.679688 62.347656 C 295.667969 57.5625 310.664062 56.976562 312.390625 61.722656 C 313.90625 65.886719 304.972656 73.457031 288.796875 82.765625 C 285.214844 84.828125 283.40625 88.964844 284.203125 93.023438 C 284.214844 93.089844 284.226562 93.152344 284.242188 93.21875 C 285.453125 99.457031 292.34375 102.75 298.023438 99.902344 C 343.0625 77.328125 370.570312 56.960938 366.800781 46.605469 Z M 366.800781 46.605469 " fill-opacity="1" fill-rule="nonzero"/><g fill="#ffffff" fill-opacity="1"><g transform="translate(61.026857, 306.007912)"><g><path d="M 16.9375 -36.421875 L 16.9375 0 L 5.90625 0 L 5.90625 -56.703125 L 14.6875 -56.703125 L 44 -19.328125 L 44 -56.625 L 55.015625 -56.625 L 55.015625 0 L 45.84375 0 Z M 16.9375 -36.421875 "/></g></g></g><g fill="#ffffff" fill-opacity="1"><g transform="translate(129.943649, 306.007912)"><g><path d="M 30.109375 0.40625 C 25.953125 0.40625 22.179688 -0.390625 18.796875 -1.984375 C 15.421875 -3.585938 12.519531 -5.757812 10.09375 -8.5 C 7.675781 -11.25 5.800781 -14.335938 4.46875 -17.765625 C 3.132812 -21.203125 2.46875 -24.726562 2.46875 -28.34375 C 2.46875 -32.125 3.171875 -35.734375 4.578125 -39.171875 C 5.992188 -42.609375 7.941406 -45.671875 10.421875 -48.359375 C 12.898438 -51.046875 15.828125 -53.171875 19.203125 -54.734375 C 22.585938 -56.304688 26.300781 -57.09375 30.34375 -57.09375 C 34.445312 -57.09375 38.1875 -56.265625 41.5625 -54.609375 C 44.945312 -52.960938 47.835938 -50.753906 50.234375 -47.984375 C 52.628906 -45.222656 54.488281 -42.140625 55.8125 -38.734375 C 57.144531 -35.328125 57.8125 -31.8125 57.8125 -28.1875 C 57.8125 -24.457031 57.117188 -20.875 55.734375 -17.4375 C 54.359375 -14.007812 52.429688 -10.953125 49.953125 -8.265625 C 47.472656 -5.578125 44.539062 -3.457031 41.15625 -1.90625 C 37.78125 -0.363281 34.097656 0.40625 30.109375 0.40625 Z M 13.65625 -28.34375 C 13.65625 -25.894531 14.023438 -23.523438 14.765625 -21.234375 C 15.515625 -18.953125 16.59375 -16.914062 18 -15.125 C 19.414062 -13.34375 21.148438 -11.929688 23.203125 -10.890625 C 25.253906 -9.859375 27.582031 -9.34375 30.1875 -9.34375 C 32.851562 -9.34375 35.222656 -9.890625 37.296875 -10.984375 C 39.367188 -12.078125 41.097656 -13.539062 42.484375 -15.375 C 43.867188 -17.207031 44.921875 -19.253906 45.640625 -21.515625 C 46.359375 -23.785156 46.71875 -26.0625 46.71875 -28.34375 C 46.71875 -30.800781 46.332031 -33.160156 45.5625 -35.421875 C 44.789062 -37.679688 43.695312 -39.703125 42.28125 -41.484375 C 40.875 -43.265625 39.144531 -44.675781 37.09375 -45.71875 C 35.039062 -46.757812 32.738281 -47.28125 30.1875 -47.28125 C 27.46875 -47.28125 25.082031 -46.734375 23.03125 -45.640625 C 20.988281 -44.546875 19.273438 -43.09375 17.890625 -41.28125 C 16.503906 -39.476562 15.453125 -37.457031 14.734375 -35.21875 C 14.015625 -32.976562 13.65625 -30.6875 13.65625 -28.34375 Z M 13.65625 -28.34375 "/></g></g></g><g fill="#ffffff" fill-opacity="1"><g transform="translate(198.301443, 306.007912)"><g><path d="M 11.734375 -56.703125 L 27.078125 -13.09375 L 42.25 -56.703125 L 53.828125 -56.703125 L 32.34375 0 L 21.71875 0 L 0.15625 -56.703125 Z M 11.734375 -56.703125 "/></g></g></g><g fill="#ffffff" fill-opacity="1"><g transform="translate(260.270836, 306.007912)"><g><path d="M 21.328125 -56.703125 L 32.5 -56.703125 L 53.34375 0 L 42 0 L 36.734375 -14.140625 L 16.9375 -14.140625 L 11.734375 0 L 0.40625 0 Z M 34.734375 -21.875 L 26.90625 -45.28125 L 18.765625 -21.875 Z M 34.734375 -21.875 "/></g></g></g><g fill="#ffffff" fill-opacity="1"><g transform="translate(64.828345, 363.375768)"><g><path d="M 2.171875 0 L 2.171875 -20.875 L 11.015625 -20.875 C 11.984375 -20.875 12.867188 -20.675781 13.671875 -20.28125 C 14.472656 -19.882812 15.171875 -19.351562 15.765625 -18.6875 C 16.367188 -18.019531 16.832031 -17.273438 17.15625 -16.453125 C 17.488281 -15.628906 17.65625 -14.789062 17.65625 -13.9375 C 17.65625 -12.757812 17.378906 -11.640625 16.828125 -10.578125 C 16.285156 -9.523438 15.535156 -8.664062 14.578125 -8 C 13.617188 -7.332031 12.484375 -7 11.171875 -7 L 6.234375 -7 L 6.234375 0 Z M 6.234375 -10.546875 L 10.9375 -10.546875 C 11.425781 -10.546875 11.863281 -10.679688 12.25 -10.953125 C 12.644531 -11.234375 12.957031 -11.632812 13.1875 -12.15625 C 13.425781 -12.675781 13.546875 -13.269531 13.546875 -13.9375 C 13.546875 -14.65625 13.410156 -15.269531 13.140625 -15.78125 C 12.878906 -16.289062 12.535156 -16.671875 12.109375 -16.921875 C 11.691406 -17.179688 11.238281 -17.3125 10.75 -17.3125 L 6.234375 -17.3125 Z M 6.234375 -10.546875 "/></g></g></g><g fill="#ffffff" fill-opacity="1"><g transform="translate(86.8046, 363.375768)"><g><path d="M 2.171875 0 L 2.171875 -20.875 L 6.234375 -20.875 L 6.234375 -3.5625 L 16.875 -3.5625 L 16.875 0 Z M 2.171875 0 "/></g></g></g><g fill="#ffffff" fill-opacity="1"><g transform="translate(107.635074, 363.375768)"><g><path d="M 7.84375 -20.875 L 11.96875 -20.875 L 19.640625 0 L 15.453125 0 L 13.515625 -5.203125 L 6.234375 -5.203125 L 4.328125 0 L 0.140625 0 Z M 12.78125 -8.046875 L 9.90625 -16.671875 L 6.90625 -8.046875 Z M 12.78125 -8.046875 "/></g></g></g><g fill="#ffffff" fill-opacity="1"><g transform="translate(131.050905, 363.375768)"><g><path d="M 6.234375 -13.40625 L 6.234375 0 L 2.171875 0 L 2.171875 -20.875 L 5.40625 -20.875 L 16.1875 -7.109375 L 16.1875 -20.84375 L 20.25 -20.84375 L 20.25 0 L 16.875 0 Z M 6.234375 -13.40625 "/></g></g></g><g fill="#ffffff" fill-opacity="1"><g transform="translate(157.140217, 363.375768)"><g><path d="M 16.671875 -3.5625 L 16.671875 0 L 2.171875 0 L 2.171875 -20.875 L 16.40625 -20.875 L 16.40625 -17.3125 L 6.234375 -17.3125 L 6.234375 -12.28125 L 15.015625 -12.28125 L 15.015625 -9 L 6.234375 -9 L 6.234375 -3.5625 Z M 16.671875 -3.5625 "/></g></g></g><g fill="#ffffff" fill-opacity="1"><g transform="translate(178.470137, 363.375768)"><g><path d="M 17.78125 -17.3125 L 11.109375 -17.3125 L 11.109375 0 L 7.078125 0 L 7.078125 -17.3125 L 0.40625 -17.3125 L 0.40625 -20.875 L 17.78125 -20.875 Z M 17.78125 -17.3125 "/></g></g></g><g fill="#ffffff" fill-opacity="1"><g transform="translate(200.328878, 363.375768)"><g><path d="M 7.84375 -20.875 L 11.96875 -20.875 L 19.640625 0 L 15.453125 0 L 13.515625 -5.203125 L 6.234375 -5.203125 L 4.328125 0 L 0.140625 0 Z M 12.78125 -8.046875 L 9.90625 -16.671875 L 6.90625 -8.046875 Z M 12.78125 -8.046875 "/></g></g></g><g fill="#ffffff" fill-opacity="1"><g transform="translate(223.744712, 363.375768)"><g><path d="M 2.171875 0 L 2.171875 -20.875 L 11.40625 -20.875 C 12.363281 -20.875 13.25 -20.675781 14.0625 -20.28125 C 14.875 -19.882812 15.578125 -19.351562 16.171875 -18.6875 C 16.773438 -18.019531 17.238281 -17.273438 17.5625 -16.453125 C 17.882812 -15.628906 18.046875 -14.789062 18.046875 -13.9375 C 18.046875 -13.050781 17.894531 -12.203125 17.59375 -11.390625 C 17.289062 -10.578125 16.851562 -9.863281 16.28125 -9.25 C 15.71875 -8.644531 15.050781 -8.175781 14.28125 -7.84375 L 19.046875 0 L 14.578125 0 L 10.28125 -7 L 6.234375 -7 L 6.234375 0 Z M 6.234375 -10.546875 L 11.3125 -10.546875 C 11.820312 -10.546875 12.269531 -10.695312 12.65625 -11 C 13.050781 -11.3125 13.363281 -11.71875 13.59375 -12.21875 C 13.832031 -12.726562 13.953125 -13.300781 13.953125 -13.9375 C 13.953125 -14.601562 13.816406 -15.179688 13.546875 -15.671875 C 13.273438 -16.171875 12.925781 -16.566406 12.5 -16.859375 C 12.082031 -17.160156 11.628906 -17.3125 11.140625 -17.3125 L 6.234375 -17.3125 Z M 6.234375 -10.546875 "/></g></g></g><g fill="#ffffff" fill-opacity="1"><g transform="translate(246.954885, 363.375768)"><g><path d="M 2.171875 0 L 2.171875 -20.875 L 6.234375 -20.875 L 6.234375 0 Z M 2.171875 0 "/></g></g></g><g fill="#ffffff" fill-opacity="1"><g transform="translate(259.030427, 363.375768)"><g><path d="M 11.015625 0.140625 C 9.347656 0.140625 7.929688 -0.132812 6.765625 -0.6875 C 5.609375 -1.25 4.671875 -2.019531 3.953125 -3 C 3.234375 -3.976562 2.707031 -5.085938 2.375 -6.328125 C 2.039062 -7.578125 1.875 -8.878906 1.875 -10.234375 L 1.875 -20.875 L 5.9375 -20.875 L 5.9375 -10.234375 C 5.9375 -9.367188 6.019531 -8.53125 6.1875 -7.71875 C 6.351562 -6.90625 6.628906 -6.175781 7.015625 -5.53125 C 7.410156 -4.882812 7.929688 -4.375 8.578125 -4 C 9.222656 -3.625 10.023438 -3.4375 10.984375 -3.4375 C 11.972656 -3.4375 12.796875 -3.625 13.453125 -4 C 14.109375 -4.382812 14.625 -4.898438 15 -5.546875 C 15.382812 -6.203125 15.664062 -6.9375 15.84375 -7.75 C 16.019531 -8.5625 16.109375 -9.390625 16.109375 -10.234375 L 16.109375 -20.875 L 20.125 -20.875 L 20.125 -10.234375 C 20.125 -8.796875 19.953125 -7.453125 19.609375 -6.203125 C 19.273438 -4.953125 18.738281 -3.847656 18 -2.890625 C 17.269531 -1.941406 16.328125 -1.195312 15.171875 -0.65625 C 14.015625 -0.125 12.628906 0.140625 11.015625 0.140625 Z M 11.015625 0.140625 "/></g></g></g><g fill="#ffffff" fill-opacity="1"><g transform="translate(284.737815, 363.375768)"><g><path d="M 19.1875 0 L 19.1875 -13.703125 L 13.84375 -3.5 L 11.578125 -3.5 L 6.234375 -13.703125 L 6.234375 0 L 2.171875 0 L 2.171875 -20.875 L 6.53125 -20.875 L 12.703125 -9 L 18.921875 -20.875 L 23.25 -20.875 L 23.25 0 Z M 19.1875 0 "/></g></g></g></svg>